<svg width="36" height="36" viewBox="0 0 36 36" fill="none" xmlns="http://www.w3.org/2000/svg">
    <g clip-path="url(#clip0_136_255)">
        <g clip-path="url(#clip1_136_255)">
            <path d="M0 3.42857C0 1.53502 1.53502 0 3.42857 0H32.5714C34.465 0 36 1.53502 36 3.42857V32.5714C36 34.465 34.465 36 32.5714 36H3.42857C1.53502 36 0 34.465 0 32.5714V3.42857Z"
                  fill="#2CB774"/>
            <g clip-path="url(#clip2_136_255)">
                <path d="M-6.17998 51.1941L4.08884 40.6693L-1.26178 65.3649L0.903512 64.6134C4.78744 63.2654 7.57655 59.8389 8.10757 55.762L12.3588 54.2865L14.7595 56.6289C13.1945 57.172 12.3658 58.8816 12.909 60.4467L29.914 54.5448C29.3708 52.9798 27.6612 52.1511 26.0962 52.6943L23.262 53.6779L19.7858 50.2862C25.0959 45.5961 27.3458 37.9954 24.879 30.8879C23.4236 26.6945 24.4389 22.2488 27.1434 19.1127L28.5801 23.2523C31.7107 22.1658 33.3676 18.7473 32.2811 15.6167C30.108 9.3555 23.2711 6.04159 17.0099 8.21465C12.9004 9.64092 10.0739 13.0804 9.22189 17.0432L9.21232 17.0211L7.70051 23.9998L-2.42927 34.3817C-6.7626 38.823 -8.21454 45.3319 -6.17998 51.1941ZM20.9963 10.5509C23.8405 10.5698 25.9696 11.2705 27.6517 13.5808C25.6374 13.1592 24.214 13.4663 23.0671 15.172L20.9963 10.5509ZM16.6348 16.2837C16.3632 15.5009 16.7773 14.6465 17.5601 14.3748C18.3429 14.1031 19.1973 14.5173 19.469 15.3C19.7407 16.0828 19.3265 16.9373 18.5437 17.2089C17.761 17.4806 16.9065 17.0665 16.6348 16.2837ZM17.5937 55.6452L15.1411 53.2523C16.0121 52.8687 16.8402 52.4238 17.62 51.922L20.4278 54.6616L17.5937 55.6452Z"
                      fill="white"/>
                <path d="M12.056 2.23262C9.41801 3.62874 9.41286 9.68534 9.74004 12.5391C11.3415 10.1819 14.4958 7.83609 16.6665 6.85544C14.6091 5.87224 12.3724 4.00226 12.056 2.23262Z"
                      fill="white"/>
                <ellipse cx="18" cy="16" rx="2" ry="2" fill="white"/>
            </g>
        </g>
        <path fill-rule="evenodd" clip-rule="evenodd"
              d="M34.5395 18C34.5395 20.2799 34.0681 22.5352 33.1549 24.6243C32.2418 26.7134 30.9066 28.5912 29.2331 30.1396C27.5597 31.6881 25.5842 32.8739 23.4306 33.6225C21.2771 34.3711 18.992 34.6664 16.7189 34.4898C14.4458 34.3132 12.2338 33.6685 10.2217 32.5963C8.20962 31.5241 6.44095 30.0474 5.02674 28.2591C3.61254 26.4707 2.58335 24.4093 2.00379 22.2043C1.42424 19.9992 1.30684 17.6981 1.65896 15.4455L0.215975 15.22C0.153735 15.6181 0.104974 16.0177 0.0696579 16.4179C-0.112477 18.4822 0.0629601 20.5655 0.591254 22.5755C1.22199 24.9753 2.34206 27.2187 3.88115 29.165C5.42023 31.1113 7.34509 32.7183 9.53485 33.8852C11.7246 35.0521 14.132 35.7537 16.6058 35.9459C19.0796 36.1381 21.5665 35.8167 23.9102 35.002C26.2539 34.1873 28.4039 32.8968 30.2251 31.2116C32.0463 29.5264 33.4994 27.4829 34.4932 25.2093C35.3256 23.305 35.8207 21.2738 35.9595 19.2062C35.9865 18.8052 36 18.403 36 18H34.5395Z"
              fill="#2CB774"/>
    </g>
    <defs>
        <clipPath id="clip0_136_255">
            <rect width="36" height="36" rx="18" fill="white"/>
        </clipPath>
        <clipPath id="clip1_136_255">
            <rect width="36" height="36" rx="18" fill="white"/>
        </clipPath>
        <clipPath id="clip2_136_255">
            <rect width="68" height="68" fill="white" transform="translate(-26)"/>
        </clipPath>
    </defs>
</svg>
