<svg id="Capa_1" enable-background="new 0 0 512 512" height="512" viewBox="0 0 512 512" width="512"
    xmlns="http://www.w3.org/2000/svg">
    <g>
        <path fill="#2cb774"
            d="m420.51 83.528 17.551-6.985c-3.703-14.492-11.977-33.868-30.494-49.658-29.34-25.015-73.875-32.625-132.376-22.615-66.074 11.306-119.078 39.079-157.54 82.547-33.666 38.048-48.771 79.961-55.514 108.423-7.208 30.422-10.18 60.291-13.327 91.915-5.706 57.347-12.173 122.346-47.57 203.872-2.013 4.637-1.555 9.974 1.217 14.201s7.488 6.772 12.543 6.772h355.822l1.221-16.124c.078-1.063 7.185-106.483-46.777-165.359-11.011-2.721-22.607-6.775-34.544-12.08-5.464-2.428-8.964-7.869-8.907-13.848.194-20.688 3.226-61.838 21.339-104.978 23.206-55.272 62.691-94.329 117.356-116.083zm-148.51 56.481c0 8.284-6.716 15-15 15s-15-6.716-15-15v-30c0-8.284 6.716-15 15-15s15 6.716 15 15z" />
        <g>
            <path fill="#2cb774"
                d="m92.024 70.581c-21.996-13.374-38.572-34.588-45.972-59.75-1.814-6.173-7.123-10.409-13.524-10.794-6.381-.383-12.147 3.177-14.68 9.07-16.128 37.526-21.45 78.792-15.392 119.337 4.075 27.275 13.203 53.328 26.824 76.964 1.097-5.659 2.306-11.347 3.665-17.084 7.321-30.9 23.502-76.03 59.079-117.743z" />
        </g>
        <g>
            <path fill="#2cb774"
                d="m364.555 255.658-42.884-18.197c-6.518 23-8.787 43.809-9.529 57.413 8.397 3.267 16.463 5.743 24.072 7.389 2.862.619 5.48 2.062 7.532 4.152 8.771 8.933 16.237 18.746 22.608 29.057 18.309-.045 34.25-3.152 47.323-7.238-.986-2.948-1.676-6.029-2.022-9.213-3.052-28.049-21.1-52.331-47.1-63.363z" />
        </g>
        <path fill="#2cb774"
            d="m496.943 149.301c-9.066-18.637-22.139-35.401-37.974-48.79l-27.368 10.89c-46.211 18.391-79.799 51.273-99.883 97.734l44.555 18.906c35.992 15.272 60.979 48.892 65.208 87.736.557 5.119 3.901 9.419 8.728 11.221 1.56.582 3.173.866 4.771.866 3.353 0 6.634-1.252 9.195-3.628 30.393-28.182 47.825-68.118 47.825-109.567 0-22.517-5.206-45.121-15.057-65.368z" />
    </g>
</svg>