<svg width="1000" height="1000" viewBox="0 0 1000 1000" fill="none" xmlns="http://www.w3.org/2000/svg">
<circle cx="500" cy="500" r="500" fill="#2CB774"/>
<circle cx="500" cy="500" r="437" fill="#181918" stroke="#085D34" stroke-width="12"/>
<g clip-path="url(#clip0_269_1223)">
<g clip-path="url(#clip1_269_1223)">
<g clip-path="url(#clip2_269_1223)">
<path d="M-41.3628 1243.18L188.545 1007.54L68.75 1560.45L117.229 1543.62C204.186 1513.44 266.63 1436.73 278.52 1345.45L373.7 1312.42L427.449 1364.86C392.41 1377.02 373.857 1415.29 386.018 1450.33L766.74 1318.2C754.58 1283.16 716.303 1264.61 681.264 1276.77L617.81 1298.79L539.981 1222.85C658.869 1117.85 709.242 947.675 654.013 788.546C621.429 694.66 644.16 595.127 704.71 524.913L736.876 617.594C806.967 593.268 844.064 516.732 819.738 446.641C771.086 306.46 618.015 232.265 477.833 280.917C385.825 312.85 322.543 389.856 303.468 478.579L303.254 478.085L269.406 634.33L42.6114 866.768C-54.407 966.204 -86.9143 1111.93 -41.3628 1243.18ZM567.084 333.224C630.763 333.647 678.431 349.333 716.091 401.06C670.993 391.62 639.124 398.495 613.446 436.685L567.084 333.224ZM469.436 461.574C463.353 444.048 472.625 424.918 490.151 418.836C507.677 412.753 526.807 422.025 532.889 439.551C538.972 457.077 529.7 476.207 512.174 482.289C494.648 488.372 475.518 479.1 469.436 461.574ZM490.903 1342.83L435.993 1289.26C455.493 1280.67 474.033 1270.71 491.491 1259.48L554.357 1320.81L490.903 1342.83Z" fill="white"/>
<path d="M366.921 146.986C307.859 178.244 307.744 313.844 315.069 377.737C350.924 324.961 421.545 272.441 470.145 250.486C424.082 228.473 374.003 186.606 366.921 146.986Z" fill="white"/>
<circle cx="500" cy="455.222" r="44.7778" fill="white"/>
</g>
</g>
</g>
<defs>
<clipPath id="clip0_269_1223">
<rect x="97" y="97" width="806" height="806" rx="403" fill="white"/>
</clipPath>
<clipPath id="clip1_269_1223">
<rect x="97" y="97" width="806" height="806" rx="21.5714" fill="white"/>
</clipPath>
<clipPath id="clip2_269_1223">
<rect width="1522.44" height="1522.44" fill="white" transform="translate(-485.111 97)"/>
</clipPath>
</defs>
</svg>
