<svg enable-background="new 0 0 32 32" viewBox="0 0 32 32" xmlns="http://www.w3.org/2000/svg"><g id="Layer_1" display="none"/><g id="Layer_2"/><g id="Layer_3"/><g id="Layer_4"/><g id="Layer_5"/><g id="Layer_6"/><g id="Layer_7"/><g id="Layer_8"/><g id="Layer_9"/><g id="Layer_10"/><g id="Layer_11"><path d="m8.812 26.392c-1.651.948-3.512 1.288-4.614 1.41.122-1.102.462-2.963 1.409-4.615.248-.431.099-.981-.332-1.229-.435-.249-.982-.098-1.229.333-1.696 2.958-1.716 6.336-1.716 6.479 0 .497.403.9.9.9.143 0 3.521-.02 6.479-1.716.431-.248.58-.797.332-1.229-.246-.431-.795-.581-1.229-.333z"/><path d="m30.909 3.275c.011-.591-.212-1.145-.628-1.56-.415-.415-1.015-.62-1.557-.625-2.492.047-9.214.762-15.574 6.471-1.134-.441-2.843-1.096-4.14-.929-1.908.245-4.727 2.841-7.488 5.611-.366.367-.512.887-.389 1.391.122.506.492.903.988 1.062l4.39 1.41c-.331.604-.657 1.222-.972 1.874-.396.82-.228 1.805.418 2.449l5.613 5.613c.412.413.964.631 1.521.631.315 0 .633-.069.929-.212.652-.315 1.27-.641 1.872-.971l1.411 4.389c.159.496.556.866 1.063.989.117.028.235.042.353.042.385 0 .756-.151 1.038-.432 2.77-2.761 5.366-5.579 5.61-7.486.169-1.309-.488-3.008-.929-4.142 5.708-6.36 6.424-13.082 6.471-15.575zm-27.741 9.868c1.465-1.459 4.647-4.542 6.071-4.725.635-.081 1.632.22 2.474.525-1.487 1.537-2.931 3.379-4.277 5.57zm10.069 11.697c-.127.062-.29.034-.394-.07l-5.614-5.614c-.103-.103-.132-.265-.069-.394 6.991-14.481 18.299-15.809 21.599-15.871h.008c.119 0 .197.053.243.099.038.038.103.122.101.252-.064 3.3-1.393 14.608-15.874 21.598zm10.345-2.078c-.183 1.423-3.266 4.606-4.725 6.07l-1.372-4.267c2.193-1.346 4.035-2.791 5.572-4.278.306.841.607 1.836.525 2.475z"/><path d="m24.128 13.214c1.472-1.473 1.472-3.869 0-5.342-1.428-1.426-3.916-1.426-5.342 0-.713.713-1.106 1.662-1.106 2.671s.394 1.958 1.106 2.671c.713.713 1.662 1.106 2.671 1.106s1.957-.393 2.671-1.106zm-1.274-1.273c-.747.748-2.05.748-2.795 0-.374-.373-.58-.87-.58-1.398s.206-1.024.58-1.398c.373-.373.869-.579 1.397-.579.527 0 1.024.206 1.397.579.772.771.772 2.025.001 2.796z"/></g><g id="Layer_12"/><g id="Layer_13"/><g id="Layer_14"/><g id="Layer_15"/><g id="Layer_16"/><g id="Layer_17"/><g id="Layer_18"/><g id="Layer_19"/><g id="Layer_20"/><g id="Layer_21"/><g id="Layer_22"/><g id="Layer_23"/><g id="Layer_24"/><g id="Layer_25"/><g id="Layer_26"/></svg>