<svg width="1336" height="1030" viewBox="0 0 1336 1030" fill="none"
  xmlns="http://www.w3.org/2000/svg">
  <g filter="url(#filter0_f_258_9772)">
    <path d="M934.358 273.574L918.562 934.052H419.007L403.211 273.574C403.211 126.901 522.112 8 668.784 8C815.457 8 934.358 126.901 934.358 273.574Z" fill="url(#paint0_linear_258_9772)"/>
    <path d="M1035.45 401.659L1032.8 825.453H949.236L946.594 401.659C946.594 377.265 966.484 357.491 991.021 357.491C1015.56 357.491 1035.45 377.265 1035.45 401.659Z" fill="url(#paint1_linear_258_9772)"/>
    <path d="M300.74 401.659L303.383 825.453H386.951L389.594 401.659C389.594 377.265 369.703 357.491 345.167 357.491C320.631 357.491 300.74 377.265 300.74 401.659Z" fill="url(#paint2_linear_258_9772)"/>
    <path fill-rule="evenodd" clip-rule="evenodd" d="M865.524 761.562C865.524 761.543 865.524 761.523 824.059 761.523C782.594 761.523 782.594 761.502 782.594 761.481L782.594 761.437L782.594 761.344L782.595 761.132C782.597 760.98 782.599 760.806 782.602 760.61C782.608 760.22 782.619 759.744 782.637 759.188C782.675 758.077 782.742 756.639 782.865 754.92C783.11 751.496 783.579 746.875 784.485 741.439C786.264 730.764 789.9 715.896 797.584 700.527C805.35 684.995 817.651 668.201 836.877 655.383C856.363 642.393 880.481 635.153 908.963 635.153C937.445 635.153 961.563 642.393 981.049 655.383C1000.28 668.201 1012.58 684.995 1020.34 700.527C1028.03 715.896 1031.66 730.764 1033.44 741.439C1034.35 746.875 1034.82 751.496 1035.06 754.92C1035.18 756.639 1035.25 758.077 1035.29 759.188C1035.31 759.744 1035.32 760.22 1035.32 760.61C1035.33 760.706 1035.33 760.796 1035.33 760.882C1035.33 760.971 1035.33 761.054 1035.33 761.132L1035.33 761.344L1035.33 761.437L1035.33 761.481C1035.33 761.502 1035.33 761.523 993.868 761.523C952.403 761.523 952.403 761.543 952.403 761.562L952.403 761.6L952.403 761.67L952.404 761.79C952.404 761.861 952.405 761.913 952.406 761.948C952.406 761.983 952.407 762 952.407 762C952.407 762 952.406 761.983 952.405 761.951C952.401 761.818 952.385 761.431 952.342 760.829C952.255 759.609 952.061 757.597 951.64 755.073C950.766 749.829 949.096 743.471 946.167 737.614C943.32 731.92 939.701 727.487 935.048 724.385C930.655 721.457 922.934 718.083 908.963 718.083C894.993 718.083 887.272 721.457 882.879 724.385C878.226 727.487 874.606 731.92 871.759 737.614C868.831 743.471 867.16 749.829 866.286 755.073C865.866 757.597 865.671 759.609 865.584 760.829C865.541 761.431 865.526 761.818 865.521 761.951C865.519 762.016 865.52 762.017 865.521 761.948C865.522 761.913 865.522 761.861 865.523 761.79L865.523 761.67L865.524 761.6L865.524 761.562Z" fill="url(#paint3_linear_258_9772)"/>
    <path fill-rule="evenodd" clip-rule="evenodd" d="M758.625 858.659C758.625 858.64 758.625 858.62 717.16 858.62C675.695 858.62 675.695 858.599 675.695 858.578L675.695 858.535L675.696 858.441L675.697 858.229C675.698 858.077 675.7 857.903 675.703 857.707C675.71 857.317 675.721 856.841 675.739 856.285C675.776 855.174 675.844 853.736 675.966 852.017C676.211 848.593 676.68 843.973 677.586 838.537C679.365 827.861 683.001 812.993 690.686 797.624C698.452 782.092 710.752 765.298 729.979 752.481C749.465 739.49 773.583 732.25 802.065 732.25C830.547 732.25 854.665 739.49 874.151 752.481C893.378 765.298 905.678 782.092 913.444 797.624C921.129 812.993 924.764 827.861 926.544 838.537C927.45 843.973 927.919 848.593 928.163 852.017C928.286 853.736 928.354 855.174 928.391 856.285C928.409 856.841 928.42 857.317 928.426 857.707C928.428 857.803 928.429 857.893 928.43 857.979C928.431 858.068 928.432 858.151 928.433 858.229L928.434 858.441L928.434 858.535L928.434 858.578C928.434 858.599 928.434 858.62 886.969 858.62C845.504 858.62 845.504 858.64 845.504 858.659L845.504 858.697L845.505 858.768L845.505 858.887C845.506 858.958 845.507 859.01 845.507 859.045C845.508 859.08 845.508 859.097 845.508 859.097C845.508 859.097 845.508 859.08 845.507 859.048C845.502 858.915 845.487 858.528 845.444 857.926C845.357 856.707 845.163 854.694 844.742 852.17C843.868 846.926 842.197 840.568 839.269 834.711C836.422 829.017 832.802 824.584 828.15 821.482C823.756 818.554 816.035 815.18 802.065 815.18C788.094 815.18 780.373 818.554 775.98 821.482C771.327 824.584 767.708 829.017 764.861 834.711C761.933 840.568 760.262 846.926 759.388 852.17C758.967 854.694 758.773 856.707 758.686 857.926C758.643 858.528 758.627 858.915 758.623 859.048C758.621 859.113 758.621 859.114 758.623 859.045C758.623 859.01 758.624 858.958 758.624 858.887L758.625 858.768L758.625 858.697L758.625 858.659Z" fill="url(#paint4_linear_258_9772)"/>
    <path fill-rule="evenodd" clip-rule="evenodd" d="M490.089 858.659C490.089 858.64 490.089 858.62 448.624 858.62C407.159 858.62 407.159 858.599 407.159 858.578L407.159 858.535L407.16 858.441L407.161 858.229C407.162 858.077 407.164 857.903 407.167 857.707C407.173 857.317 407.184 856.841 407.203 856.285C407.24 855.174 407.308 853.736 407.43 852.017C407.675 848.593 408.144 843.973 409.05 838.537C410.829 827.861 414.465 812.993 422.15 797.624C429.916 782.092 442.216 765.298 461.443 752.481C480.929 739.49 505.047 732.25 533.529 732.25C562.011 732.25 586.129 739.49 605.615 752.481C624.841 765.298 637.142 782.092 644.908 797.624C652.592 812.993 656.228 827.861 658.007 838.537C658.913 843.973 659.383 848.593 659.627 852.017C659.75 853.736 659.818 855.174 659.855 856.285C659.873 856.841 659.884 857.317 659.89 857.707C659.892 857.803 659.893 857.893 659.894 857.979C659.895 858.068 659.896 858.151 659.897 858.229L659.898 858.441L659.898 858.535L659.898 858.578C659.898 858.599 659.898 858.62 618.433 858.62C576.968 858.62 576.968 858.64 576.968 858.659L576.968 858.697L576.969 858.768L576.969 858.887C576.97 858.958 576.971 859.01 576.971 859.045C576.972 859.08 576.972 859.097 576.972 859.097C576.972 859.097 576.972 859.08 576.971 859.048C576.966 858.915 576.951 858.528 576.908 857.926C576.821 856.707 576.626 854.694 576.206 852.17C575.332 846.926 573.661 840.568 570.733 834.711C567.886 829.017 564.266 824.584 559.614 821.482C555.22 818.554 547.499 815.18 533.529 815.18C519.558 815.18 511.837 818.554 507.444 821.482C502.791 824.584 499.172 829.017 496.325 834.711C493.396 840.568 491.726 846.926 490.852 852.17C490.431 854.694 490.237 856.707 490.15 857.926C490.107 858.528 490.091 858.915 490.087 859.048C490.085 859.113 490.085 859.114 490.086 859.045C490.087 859.01 490.088 858.958 490.088 858.887L490.089 858.768L490.089 858.697L490.089 858.659Z" fill="url(#paint5_linear_258_9772)"/>
    <path fill-rule="evenodd" clip-rule="evenodd" d="M219.716 241.336C219.718 241.323 219.722 241.317 219.722 241.317C219.749 241.318 219.721 242.939 219.705 247.565C219.687 252.58 219.672 259.635 219.659 268.063C219.632 284.911 219.615 307.152 219.603 329.329C219.591 351.502 219.585 373.599 219.582 390.153C219.581 398.43 219.58 405.32 219.58 410.142L219.579 417.712C219.579 417.712 219.579 417.714 178.114 417.714C136.649 417.714 136.649 417.712 136.649 417.712L136.65 410.135C136.65 405.312 136.651 398.418 136.652 390.138C136.655 373.579 136.661 351.472 136.673 329.285C136.685 307.101 136.702 284.826 136.729 267.933C136.742 259.491 136.757 252.37 136.776 247.27C136.777 246.883 136.778 246.471 136.779 246.039C136.789 242.585 136.802 237.937 136.953 235.922C137.788 224.773 141.319 196.376 158.671 169.672C177.769 140.283 211.444 116.599 263.019 116.599C291.501 116.599 315.619 123.838 335.105 136.829C354.332 149.647 366.632 166.44 374.398 181.972C382.083 197.342 385.718 212.21 387.498 222.885C388.404 228.321 388.873 232.942 389.117 236.366C389.24 238.085 389.308 239.523 389.345 240.633C389.363 241.19 389.372 241.5 389.381 242.056C389.386 242.412 389.389 242.968 389.389 242.968C389.389 265.869 370.824 284.433 347.924 284.433C325.164 284.433 306.687 266.097 306.461 243.391C306.459 243.265 306.459 243.14 306.459 243.014L306.459 243.046L306.459 243.116L306.459 243.236C306.46 243.307 306.461 243.359 306.461 243.394C306.462 243.428 306.462 243.446 306.462 243.446C306.462 243.446 306.462 243.429 306.461 243.396L306.461 243.391C306.456 243.253 306.441 242.869 306.398 242.274C306.311 241.055 306.117 239.043 305.696 236.519C304.822 231.275 303.151 224.916 300.223 219.06C297.376 213.366 293.757 208.933 289.104 205.831C284.71 202.902 276.989 199.529 263.019 199.529C250.766 199.529 243.396 202.132 238.947 204.605C234.434 207.112 231.004 210.558 228.209 214.859C222.254 224.024 220.248 235.464 219.716 241.336Z" fill="url(#paint6_linear_258_9772)"/>
    <path fill-rule="evenodd" clip-rule="evenodd" d="M1157.92 488.852C1157.92 488.84 1157.93 488.833 1157.93 488.833C1157.95 488.834 1157.93 490.455 1157.91 495.081C1157.89 500.096 1157.88 507.151 1157.86 515.579C1157.84 532.427 1157.82 554.668 1157.81 576.845C1157.8 599.019 1157.79 621.115 1157.79 637.669C1157.79 645.946 1157.79 652.836 1157.78 657.658L1157.78 665.228C1157.78 665.228 1157.78 665.23 1116.32 665.23C1074.85 665.23 1074.85 665.228 1074.85 665.228L1074.85 657.651C1074.86 652.828 1074.86 645.934 1074.86 637.654C1074.86 621.095 1074.87 598.988 1074.88 576.801C1074.89 554.618 1074.91 532.342 1074.93 515.45C1074.95 507.007 1074.96 499.886 1074.98 494.786C1074.98 494.4 1074.98 493.987 1074.98 493.555C1074.99 490.101 1075.01 485.453 1075.16 483.438C1075.99 472.289 1079.52 443.892 1096.88 417.188C1115.97 387.799 1149.65 364.115 1201.22 364.115C1229.71 364.115 1253.82 371.355 1273.31 384.345C1292.54 397.163 1304.84 413.957 1312.6 429.489C1320.29 444.858 1323.92 459.726 1325.7 470.402C1326.61 475.837 1327.08 480.458 1327.32 483.882C1327.45 485.601 1327.51 487.039 1327.55 488.15C1327.57 488.706 1327.58 489.017 1327.59 489.572C1327.59 489.929 1327.59 490.485 1327.59 490.485C1327.59 513.385 1309.03 531.95 1286.13 531.95C1263.37 531.95 1244.89 513.613 1244.67 490.907C1244.66 490.782 1244.66 490.656 1244.66 490.53L1244.66 490.562L1244.66 490.632L1244.66 490.752C1244.67 490.823 1244.67 490.875 1244.67 490.91C1244.67 490.945 1244.67 490.962 1244.67 490.962C1244.67 490.962 1244.67 490.945 1244.67 490.913L1244.67 490.907C1244.66 490.77 1244.65 490.385 1244.6 489.791C1244.52 488.571 1244.32 486.559 1243.9 484.035C1243.03 478.791 1241.36 472.433 1238.43 466.576C1235.58 460.882 1231.96 456.449 1227.31 453.347C1222.92 450.419 1215.19 447.045 1201.22 447.045C1188.97 447.045 1181.6 449.649 1177.15 452.121C1172.64 454.629 1169.21 458.074 1166.41 462.376C1160.46 471.54 1158.45 482.98 1157.92 488.852Z" fill="url(#paint7_linear_258_9772)"/>
    <path fill-rule="evenodd" clip-rule="evenodd" d="M1115.88 241.336C1115.87 241.323 1115.87 241.317 1115.87 241.317C1115.84 241.318 1115.87 242.939 1115.89 247.565C1115.91 252.58 1115.92 259.635 1115.93 268.063C1115.96 284.911 1115.98 307.152 1115.99 329.329C1116 351.502 1116.01 373.599 1116.01 390.153C1116.01 398.43 1116.01 405.32 1116.01 410.142L1116.01 417.712C1116.01 417.712 1116.01 417.714 1157.48 417.714C1198.94 417.714 1198.94 417.712 1198.94 417.712L1198.94 410.135C1198.94 405.312 1198.94 398.418 1198.94 390.138C1198.94 373.579 1198.93 351.472 1198.92 329.285C1198.91 307.101 1198.89 284.826 1198.86 267.933C1198.85 259.491 1198.84 252.37 1198.82 247.27C1198.82 246.883 1198.81 246.471 1198.81 246.039C1198.8 242.585 1198.79 237.937 1198.64 235.922C1197.8 224.773 1194.27 196.376 1176.92 169.672C1157.82 140.283 1124.15 116.599 1072.57 116.599C1044.09 116.599 1019.97 123.838 1000.49 136.829C981.261 149.647 968.961 166.44 961.195 181.972C953.51 197.342 949.874 212.21 948.095 222.885C947.189 228.321 946.72 232.942 946.475 236.366C946.353 238.085 946.285 239.523 946.248 240.633C946.229 241.19 946.221 241.5 946.212 242.056C946.207 242.412 946.204 242.968 946.204 242.968C946.204 265.869 964.769 284.433 987.669 284.433C1010.43 284.433 1028.91 266.097 1029.13 243.391C1029.13 243.265 1029.13 243.14 1029.13 243.014L1029.13 243.046L1029.13 243.116L1029.13 243.236C1029.13 243.307 1029.13 243.359 1029.13 243.394C1029.13 243.428 1029.13 243.446 1029.13 243.446C1029.13 243.446 1029.13 243.429 1029.13 243.396L1029.13 243.391C1029.14 243.253 1029.15 242.869 1029.19 242.274C1029.28 241.055 1029.48 239.043 1029.9 236.519C1030.77 231.275 1032.44 224.916 1035.37 219.06C1038.22 213.366 1041.84 208.933 1046.49 205.831C1050.88 202.902 1058.6 199.529 1072.57 199.529C1084.83 199.529 1092.2 202.132 1096.65 204.605C1101.16 207.112 1104.59 210.558 1107.38 214.859C1113.34 224.024 1115.35 235.464 1115.88 241.336Z" fill="url(#paint8_linear_258_9772)"/>
    <path fill-rule="evenodd" clip-rule="evenodd" d="M177.673 488.852C177.67 488.84 177.667 488.833 177.667 488.833C177.64 488.834 177.667 490.455 177.684 495.081C177.701 500.096 177.717 507.151 177.73 515.579C177.756 532.427 177.774 554.668 177.786 576.845C177.798 599.019 177.803 621.115 177.806 637.669C177.808 645.946 177.809 652.836 177.809 657.658L177.809 665.228C177.809 665.228 177.809 665.23 219.274 665.23C260.739 665.23 260.739 665.228 260.739 665.228L260.739 657.651C260.739 652.828 260.738 645.934 260.736 637.654C260.733 621.095 260.728 598.988 260.716 576.801C260.704 554.618 260.686 532.342 260.66 515.45C260.647 507.007 260.631 499.886 260.613 494.786C260.612 494.4 260.611 493.987 260.609 493.555C260.6 490.101 260.587 485.453 260.436 483.438C259.6 472.289 256.07 443.892 238.717 417.188C219.619 387.799 185.945 364.115 134.37 364.115C105.888 364.115 81.7697 371.355 62.2836 384.345C43.057 397.163 30.7568 413.957 22.9908 429.489C15.3059 444.858 11.6702 459.726 9.89095 470.402C8.98495 475.837 8.51591 480.458 8.27135 483.882C8.14856 485.601 8.08092 487.039 8.04388 488.15C8.02534 488.706 8.01654 489.017 8.00812 489.572C8.00273 489.929 8.00014 490.485 8.00014 490.485C8.00014 513.385 26.5647 531.95 49.4651 531.95C72.2246 531.95 90.7013 513.613 90.9281 490.907C90.9293 490.782 90.93 490.656 90.9301 490.53L90.9301 490.562L90.9299 490.632L90.9292 490.752C90.9286 490.823 90.9279 490.875 90.9274 490.91C90.9268 490.945 90.9264 490.962 90.9264 490.962C90.9264 490.962 90.9268 490.945 90.9279 490.913L90.9281 490.907C90.9327 490.77 90.9481 490.385 90.9906 489.791C91.0777 488.571 91.272 486.559 91.6926 484.035C92.5666 478.791 94.2375 472.433 97.1657 466.576C100.013 460.882 103.632 456.449 108.285 453.347C112.678 450.419 120.399 447.045 134.37 447.045C146.623 447.045 153.992 449.649 158.442 452.121C162.954 454.629 166.385 458.074 169.18 462.376C175.135 471.54 177.141 482.98 177.673 488.852Z" fill="url(#paint9_linear_258_9772)"/>
    <g opacity="0.6" filter="url(#filter1_f_258_9772)">
      <path fill-rule="evenodd" clip-rule="evenodd" d="M791.322 280.943C766.617 280.943 766.617 305.648 766.617 305.648V330.353C766.617 330.353 766.617 355.058 791.322 355.058C816.027 355.058 816.027 330.353 816.027 330.353V305.648C816.027 305.648 816.027 280.943 791.322 280.943ZM544.271 280.943C519.566 280.943 519.566 305.648 519.566 305.648V330.353C519.566 330.353 519.566 355.058 544.271 355.058C568.976 355.058 568.976 330.353 568.976 330.353V305.648C568.976 305.648 568.976 280.943 544.271 280.943Z" fill="#00FFD1"/>
    </g>
    <path d="M1217.45 701.321L1214.8 880.533H1131.24L1128.59 701.321C1128.59 676.928 1148.48 657.153 1173.02 657.153C1197.56 657.153 1217.45 676.928 1217.45 701.321Z" fill="url(#paint10_linear_258_9772)"/>
    <path d="M117.594 704.321L120.236 880.115H203.805L206.447 704.321C206.447 679.928 186.557 660.153 162.02 660.153C137.484 660.153 117.594 679.928 117.594 704.321Z" fill="url(#paint11_linear_258_9772)"/>
    <path fill-rule="evenodd" clip-rule="evenodd" d="M383.524 761.562C383.524 761.543 383.524 761.523 342.059 761.523C300.594 761.523 300.594 761.502 300.594 761.481L300.594 761.437L300.594 761.344L300.595 761.132C300.597 760.98 300.599 760.806 300.602 760.61C300.608 760.22 300.619 759.744 300.637 759.188C300.675 758.077 300.742 756.639 300.865 754.92C301.11 751.496 301.579 746.875 302.485 741.439C304.264 730.764 307.9 715.896 315.584 700.527C323.35 684.995 335.651 668.201 354.877 655.383C374.363 642.393 398.481 635.153 426.963 635.153C455.445 635.153 479.563 642.393 499.049 655.383C518.276 668.201 530.576 684.995 538.342 700.527C546.027 715.896 549.663 730.764 551.442 741.439C552.348 746.875 552.817 751.496 553.062 754.92C553.184 756.639 553.252 758.077 553.289 759.188C553.308 759.744 553.319 760.22 553.325 760.61C553.326 760.706 553.328 760.796 553.329 760.882C553.33 760.971 553.331 761.054 553.331 761.132L553.332 761.344L553.333 761.437L553.333 761.481C553.333 761.502 553.333 761.523 511.868 761.523C470.403 761.523 470.403 761.543 470.403 761.562L470.403 761.6L470.403 761.67L470.404 761.79C470.404 761.861 470.405 761.913 470.406 761.948C470.406 761.983 470.407 762 470.407 762C470.407 762 470.406 761.983 470.405 761.951C470.401 761.818 470.385 761.431 470.342 760.829C470.255 759.609 470.061 757.597 469.64 755.073C468.766 749.829 467.096 743.471 464.167 737.614C461.32 731.92 457.701 727.487 453.048 724.385C448.655 721.457 440.934 718.083 426.963 718.083C412.993 718.083 405.272 721.457 400.879 724.385C396.226 727.487 392.606 731.92 389.759 737.614C386.831 743.471 385.16 749.829 384.286 755.073C383.866 757.597 383.671 759.609 383.584 760.829C383.541 761.431 383.526 761.818 383.521 761.951C383.519 762.016 383.52 762.017 383.521 761.948C383.522 761.913 383.522 761.861 383.523 761.79L383.523 761.67L383.524 761.6L383.524 761.562Z" fill="url(#paint12_linear_258_9772)"/>
  </g>
  <defs>
    <filter id="filter0_f_258_9772" x="0.579065" y="0.579065" width="1334.44" height="1036.15" filterUnits="userSpaceOnUse" color-interpolation-filters="sRGB">
      <feFlood flood-opacity="0" result="BackgroundImageFix"/>
      <feBlend mode="normal" in="SourceGraphic" in2="BackgroundImageFix" result="shape"/>
      <feGaussianBlur stdDeviation="3.71047" result="effect1_foregroundBlur_258_9772"/>
    </filter>
    <filter id="filter1_f_258_9772" x="419.384" y="180.76" width="496.825" height="274.48" filterUnits="userSpaceOnUse" color-interpolation-filters="sRGB">
      <feFlood flood-opacity="0" result="BackgroundImageFix"/>
      <feBlend mode="normal" in="SourceGraphic" in2="BackgroundImageFix" result="shape"/>
      <feGaussianBlur stdDeviation="50.0913" result="effect1_foregroundBlur_258_9772"/>
    </filter>
    <linearGradient id="paint0_linear_258_9772" x1="668.784" y1="8" x2="668.784" y2="934.052" gradientUnits="userSpaceOnUse">
      <stop stop-color="#0A2144"/>
      <stop offset="1" stop-color="#07101E" stop-opacity="0"/>
    </linearGradient>
    <linearGradient id="paint1_linear_258_9772" x1="991.021" y1="357.491" x2="991.021" y2="825.453" gradientUnits="userSpaceOnUse">
      <stop stop-color="#0A2144"/>
      <stop offset="1" stop-color="#07101E" stop-opacity="0"/>
    </linearGradient>
    <linearGradient id="paint2_linear_258_9772" x1="345.167" y1="357.491" x2="345.167" y2="825.453" gradientUnits="userSpaceOnUse">
      <stop stop-color="#0A2144"/>
      <stop offset="1" stop-color="#07101E" stop-opacity="0"/>
    </linearGradient>
    <linearGradient id="paint3_linear_258_9772" x1="908.963" y1="635.153" x2="908.963" y2="762" gradientUnits="userSpaceOnUse">
      <stop stop-color="#0A2144"/>
      <stop offset="1" stop-color="#07101E" stop-opacity="0"/>
    </linearGradient>
    <linearGradient id="paint4_linear_258_9772" x1="802.065" y1="732.25" x2="802.065" y2="859.097" gradientUnits="userSpaceOnUse">
      <stop stop-color="#0A2144"/>
      <stop offset="1" stop-color="#07101E" stop-opacity="0"/>
    </linearGradient>
    <linearGradient id="paint5_linear_258_9772" x1="533.529" y1="732.25" x2="533.529" y2="859.097" gradientUnits="userSpaceOnUse">
      <stop stop-color="#0A2144"/>
      <stop offset="1" stop-color="#07101E" stop-opacity="0"/>
    </linearGradient>
    <linearGradient id="paint6_linear_258_9772" x1="263.019" y1="116.599" x2="263.019" y2="417.714" gradientUnits="userSpaceOnUse">
      <stop stop-color="#0A2144"/>
      <stop offset="1" stop-color="#07101E" stop-opacity="0"/>
    </linearGradient>
    <linearGradient id="paint7_linear_258_9772" x1="1201.22" y1="364.115" x2="1201.22" y2="665.23" gradientUnits="userSpaceOnUse">
      <stop stop-color="#0A2144"/>
      <stop offset="1" stop-color="#07101E" stop-opacity="0"/>
    </linearGradient>
    <linearGradient id="paint8_linear_258_9772" x1="1072.57" y1="116.599" x2="1072.57" y2="417.714" gradientUnits="userSpaceOnUse">
      <stop stop-color="#0A2144"/>
      <stop offset="1" stop-color="#07101E" stop-opacity="0"/>
    </linearGradient>
    <linearGradient id="paint9_linear_258_9772" x1="134.37" y1="364.115" x2="134.37" y2="665.23" gradientUnits="userSpaceOnUse">
      <stop stop-color="#0A2144"/>
      <stop offset="1" stop-color="#07101E" stop-opacity="0"/>
    </linearGradient>
    <linearGradient id="paint10_linear_258_9772" x1="1173.02" y1="657.153" x2="1173.02" y2="900.033" gradientUnits="userSpaceOnUse">
      <stop stop-color="#0A2144"/>
      <stop offset="1" stop-color="#07101E" stop-opacity="0"/>
    </linearGradient>
    <linearGradient id="paint11_linear_258_9772" x1="162.021" y1="660.153" x2="162.021" y2="913.533" gradientUnits="userSpaceOnUse">
      <stop stop-color="#0A2144"/>
      <stop offset="1" stop-color="#07101E" stop-opacity="0"/>
    </linearGradient>
    <linearGradient id="paint12_linear_258_9772" x1="426.963" y1="635.153" x2="426.963" y2="762" gradientUnits="userSpaceOnUse">
      <stop stop-color="#0A2144"/>
      <stop offset="1" stop-color="#07101E" stop-opacity="0"/>
    </linearGradient>
  </defs>
</svg>